<?xml version="1.0" encoding="utf-8"?>
<!-- Generator: Adobe Illustrator 16.0.3, SVG Export Plug-In . SVG Version: 6.00 Build 0)  -->
<!DOCTYPE svg PUBLIC "-//W3C//DTD SVG 1.1//EN" "http://www.w3.org/Graphics/SVG/1.1/DTD/svg11.dtd">
<svg version="1.1" xmlns="http://www.w3.org/2000/svg" xmlns:xlink="http://www.w3.org/1999/xlink" x="0px" y="0px" width="32px"
	 height="32px" viewBox="0 0 32 32" enable-background="new 0 0 32 32" xml:space="preserve">
<g id="Ebene_1" display="none">
	<rect display="inline" fill="#FFD481" width="32" height="32"/>
</g>
<g id="Ebene_3" display="none">
</g>
<g id="Ebene_2">
	<g>
		<path fill="#2E90FF" d="M12.476,8.13c0-0.901-0.318-1.357-0.954-1.741C10.885,6.005,9.931,6,8.659,6H6v5h2.685
			C11.212,11,12.476,9.967,12.476,8.13z"/>
		<path fill="#2E90FF" d="M6,19h3.203c1.474,0,2.559-0.406,3.254-0.916c0.695-0.51,1.042-1.359,1.042-2.396
			c0-0.961-0.375-1.559-1.125-2.065C11.625,13.118,10.508,13,9.025,13H6V19z"/>
		<path fill="#2E90FF" d="M22.355,13H19v6h3.457c1.205,0,2.129-0.338,2.773-0.877s0.967-1.306,0.967-2.309
			C26.197,13.935,24.918,13,22.355,13z"/>
		<path fill="#2E90FF" d="M21.926,21H19v7h-2V11h5.596c1.963,0,3.459,0.401,4.486,1.214c1.027,0.813,1.543,1.976,1.543,3.493
			c0,1.256-0.395,2.312-1.182,3.171c-0.789,0.859-1.844,1.398-3.166,1.617l3.918,5.849C30.564,23.554,32,19.947,32,16
			c0-8.836-7.163-15.79-16-15.79C12.179,0.21,8.674,1,5.922,4h2.711c4.178,0,6.268,1.167,6.268,3.923
			c0,1.028-0.303,1.782-0.91,2.474c-0.606,0.69-1.432,1.089-2.477,1.3c1.407,0.152,2.496,0.576,3.267,1.326
			c0.771,0.75,1.156,1.681,1.156,2.818c0,1.517-0.577,2.875-1.731,3.718S11.447,21,9.392,21H3V6.125C1,8.846-0.214,12.27-0.214,16
			c0,8.837,7.271,16,16.107,16c4.042,0,7.776-1.396,10.591-3.867L21.926,21z"/>
	</g>
</g>
</svg>
